<svg width="268" height="19" fill="none" xmlns="http://www.w3.org/2000/svg"><path d="M56.8 11c.3 0 .5-.2.5-.5s-.3-.5-.5-.5c-.3 0-.5.2-.5.5s.2.5.5.5Z" fill="#000"/><path d="M66 3h-2V1h-1v2h-8V1h-1v2h-2c-.6 0-1 .4-1 1v11c0 .5.4 1 1 1h14c.5 0 1-.5 1-1V4c0-.6-.5-1-1-1Zm0 12H52V8h14v7ZM52 7V4h2v2h1V4h8v2h1V4h2v3H52Z" fill="#000"/><path d="M59 11c.3 0 .5-.2.5-.5s-.2-.5-.5-.5-.5.2-.5.5.2.5.5.5ZM61.3 11c.3 0 .5-.2.5-.5s-.3-.5-.5-.5c-.3 0-.5.2-.5.5s.2.5.5.5ZM56.8 12c-.3 0-.5.2-.5.5s.2.5.5.5.5-.2.5-.5-.3-.5-.5-.5ZM54.5 11c.3 0 .5-.2.5-.5s-.2-.5-.5-.5-.5.2-.5.5.2.5.5.5ZM54.5 12c-.3 0-.5.2-.5.5s.2.5.5.5.5-.2.5-.5-.2-.5-.5-.5ZM59 12c-.3 0-.5.2-.5.5s.2.5.5.5.5-.2.5-.5-.2-.5-.5-.5ZM61.3 12c-.3 0-.5.2-.5.5s.2.5.5.5.5-.2.5-.5-.3-.5-.5-.5ZM63.5 11c.3 0 .5-.2.5-.5s-.2-.5-.5-.5-.5.2-.5.5.2.5.5.5ZM63.5 12c-.3 0-.5.2-.5.5s.2.5.5.5.5-.2.5-.5-.2-.5-.5-.5ZM144.3 3.3h-14.7c-.3 0-.6.2-.6.5s.3.6.6.6h1.7v12c0 .3.3.6.6.6h10.2c.3 0 .6-.3.6-.6v-12h1.7c.3 0 .6-.3.6-.6s-.4-.5-.7-.5Zm-2.8 12.5h-9.1V4.4h9.1v11.4ZM135.2 2.2h3.4c.3 0 .6-.3.6-.6s-.2-.6-.5-.6h-3.5c-.3 0-.5.3-.5.6s.2.6.5.6Z" fill="#000"/><path d="M135.2 13c.3 0 .6-.3.6-.6V6.7c0-.3-.3-.6-.6-.6s-.6.3-.6.6v5.7c.1.3.3.6.6.6ZM138.7 13c.3 0 .6-.3.6-.6V6.7c0-.3-.3-.6-.6-.6s-.6.4-.6.6v5.7c0 .3.2.6.6.6Z" fill="#000"/><path fill-rule="evenodd" clip-rule="evenodd" d="M183.2 6.3c.3-.2.8-.2 1 0l4.8 4.8 4.7-4.8a.7.7 0 1 1 1 1.1l-5.2 5.3c-.3.2-.7.2-1 0l-5.3-5.3a.7.7 0 0 1 0-1Z" fill="#000"/><path d="M110.9 18a1 1 0 0 1-.8-.4l-7-7.9a5.4 5.4 0 0 1 4.4-8.7c1.3 0 2.5.5 3.5 1.3a5.5 5.5 0 0 1 9 4.1c0 1.3-.5 2.5-1.3 3.4l-7 7.9c-.2.2-.4.3-.8.3Zm-6-9.5 6.1 6.9 6.2-7c.5-.5.7-1.2.7-2 0-1.8-1.5-3.3-3.3-3.3-1 0-2 .5-2.7 1.3-.3.3-.6.4-.9.4-.3 0-.6-.2-.8-.4a3.7 3.7 0 0 0-2.7-1.3 3.3 3.3 0 0 0-3.3 3.3c-.1.9.3 1.6.7 2.1-.1 0-.1 0 0 0ZM215 2l-6 5.8V14h12V7.8L215 2Zm5 11h-10V8.2l5-4.8 5 4.8V13Z" fill="#000"/><path d="M213 12h1V9.5h2V12h1V8.5h-4V12Z" fill="#000"/><path fill-rule="evenodd" clip-rule="evenodd" d="M266 3h2v2h-2V3Zm2 12h-2V6h2v9Z" fill="#000"/><path d="M26 8v2h14V8H26ZM170 3.3 168.7 2 163 7.7 157.3 2 156 3.3l5.7 5.7-5.7 5.7 1.3 1.3 5.7-5.7 5.7 5.7 1.3-1.3-5.7-5.7 5.7-5.7ZM14 8H8V2H6v6H0v2h6v6h2v-6h6V8ZM94.5 17l-3.7-3.7a8 8 0 0 0 1.7-4.8 8 8 0 1 0-3.1 6.3l3.7 3.7 1.4-1.5Zm-10-2.5a6 6 0 0 1-6-6 6 6 0 0 1 12 0 6 6 0 0 1-6 6ZM241 1l2.1 6.5h6.9l-5.6 4 2.2 6.5-5.6-4-5.6 4 2.2-6.5-5.6-4h6.9L241 1Z" fill="#000"/></svg>