<svg width="294" height="16" viewBox="0 0 294 16" fill="#ffffff" xmlns="http://www.w3.org/2000/svg">
  <path d="M282 1h-4v6h4V1ZM294 1h-4v6h4V1ZM288 1h-4v6h4V1ZM282 9h-4v6h4V9ZM294 9h-4v6h4V9ZM288 9h-4v6h4V9ZM208 1h-2v2h2V1ZM222 1h-12v2h12V1ZM208 5h-2v2h2V5ZM222 5h-12v2h12V5ZM208 9h-2v2h2V9ZM222 9h-12v2h12V9ZM208 13h-2v2h2v-2ZM222 13h-12v2h12v-2ZM258 13h-16v2h16v-2ZM256 3v6h-12V3h12Zm2-2h-16v10h16V1ZM53.75 11c.3 0 .5-.2.5-.5s-.2-.5-.5-.5-.5.2-.5.5.2.5.5.5Z" fill="#000"/>
  <path d="M63 3h-2V1h-1v2h-8V1h-1v2h-2c-.6 0-1 .4-1 1v11c0 .5.4 1 1 1h14c.5 0 1-.5 1-1V4c0-.6-.5-1-1-1Zm0 12H49V8h14v7ZM49 7V4h2v2h1V4h8v2h1V4h2v3H49Z"/>
  <path d="M56 11c.3 0 .5-.2.5-.5s-.2-.5-.5-.5-.5.2-.5.5.2.5.5.5ZM58.25 11c.3 0 .5-.2.5-.5s-.2-.5-.5-.5-.5.2-.5.5.2.5.5.5ZM53.75 12c-.3 0-.5.2-.5.5s.2.5.5.5.5-.2.5-.5-.2-.5-.5-.5ZM51.5 11c.3 0 .5-.2.5-.5s-.2-.5-.5-.5-.5.2-.5.5.2.5.5.5ZM51.5 12c-.3 0-.5.2-.5.5s.2.5.5.5.5-.2.5-.5-.2-.5-.5-.5ZM56 12c-.3 0-.5.2-.5.5s.2.5.5.5.5-.2.5-.5-.2-.5-.5-.5ZM58.25 12c-.3 0-.5.2-.5.5s.2.5.5.5.5-.2.5-.5-.2-.5-.5-.5ZM60.5 11c.3 0 .5-.2.5-.5s-.2-.5-.5-.5-.5.2-.5.5.2.5.5.5ZM60.5 12c-.3 0-.5.2-.5.5s.2.5.5.5.5-.2.5-.5-.2-.5-.5-.5ZM89.3 2.3H74.6c-.3 0-.6.2-.6.5s.3.6.6.6h1.7v12c0 .3.3.6.6.6h10.2c.3 0 .6-.3.6-.6v-12h1.7c.3 0 .6-.3.6-.6s-.4-.5-.7-.5Zm-2.8 12.5h-9.1V3.4h9.1v11.4ZM80.2 1.2h3.4c.3 0 .6-.3.6-.6S84 0 83.7 0h-3.5c-.3 0-.5.3-.5.6s.2.6.5.6Z"/>
  <path d="M80.2 12c.3 0 .6-.3.6-.6V5.7c0-.3-.3-.6-.6-.6s-.6.3-.6.6v5.7c.1.3.3.6.6.6ZM83.7 12c.3 0 .6-.3.6-.6V5.7c0-.3-.3-.6-.6-.6s-.6.4-.6.6v5.7c0 .3.2.6.6.6Z"/>
  <path fill="#000000" fill-rule="evenodd" clip-rule="evenodd" d="M124.22 5.345a.75.75 0 0 1 1.06 0l4.72 4.72 4.72-4.72a.75.75 0 1 1 1.06 1.06l-5.25 5.25a.75.75 0 0 1-1.06 0l-5.25-5.25a.75.75 0 0 1 0-1.06Z"/>
  <path d="m152 2-6 5.8V14h12V7.8L152 2Zm5 11h-10V8.2l5-4.8 5 4.8V13Z"/>
  <path d="M150 12h1V9.5h2V12h1V8.5h-4V12Z"/>
  <path fill-rule="evenodd" clip-rule="evenodd" d="M168 2h2v2h-2V2Zm2 12h-2V5h2v9Z"/>
  <path d="M24 7v2h14V7H24ZM114 2.292 112.708 1 107 6.708 101.292 1 100 2.292 105.708 8 100 13.708 101.292 15 107 9.292 112.708 15 114 13.708 108.292 8 114 2.292ZM14 7H8V1H6v6H0v2h6v6h2V9h6V7ZM184.889 7.55l-3.8-3.4c-.2-.2-.6-.2-.9 0-.3.2-.2.6 0 .8l3.3 3-3.2 3c-.2.2-.2.6 0 .8 0 .1.3.2.4.2.1 0 .3-.1.4-.2l3.8-3.4c.3-.2.3-.6 0-.8Z"/>
</svg>
