<svg width="280" height="21" fill="none" xmlns="http://www.w3.org/2000/svg"><path d="M59.8 12c.3 0 .5-.2.5-.5s-.3-.5-.5-.5c-.3 0-.5.2-.5.5s.2.5.5.5Z" fill="#000"/><path d="M69 4h-2V2h-1v2h-8V2h-1v2h-2c-.6 0-1 .4-1 1v11c0 .5.4 1 1 1h14c.5 0 1-.5 1-1V5c0-.6-.5-1-1-1Zm0 12H55V9h14v7ZM55 8V5h2v2h1V5h8v2h1V5h2v3H55Z" fill="#000"/><path d="M62 12c.3 0 .5-.2.5-.5s-.2-.5-.5-.5-.5.2-.5.5.2.5.5.5ZM64.3 12c.3 0 .5-.2.5-.5s-.3-.5-.5-.5c-.3 0-.5.2-.5.5s.2.5.5.5ZM59.8 13c-.3 0-.5.2-.5.5s.2.5.5.5.5-.2.5-.5-.3-.5-.5-.5ZM57.5 12c.3 0 .5-.2.5-.5s-.2-.5-.5-.5-.5.2-.5.5.2.5.5.5ZM57.5 13c-.3 0-.5.2-.5.5s.2.5.5.5.5-.2.5-.5-.2-.5-.5-.5ZM62 13c-.3 0-.5.2-.5.5s.2.5.5.5.5-.2.5-.5-.2-.5-.5-.5ZM64.3 13c-.3 0-.5.2-.5.5s.2.5.5.5.5-.2.5-.5-.3-.5-.5-.5ZM66.5 12c.3 0 .5-.2.5-.5s-.2-.5-.5-.5-.5.2-.5.5.2.5.5.5ZM66.5 13c-.3 0-.5.2-.5.5s.2.5.5.5.5-.2.5-.5-.2-.5-.5-.5ZM147.3 4.3h-14.7c-.3 0-.6.2-.6.5s.3.6.6.6h1.7v12c0 .3.3.6.6.6h10.2c.3 0 .6-.3.6-.6v-12h1.7c.3 0 .6-.3.6-.6s-.4-.5-.7-.5Zm-2.8 12.5h-9.1V5.4h9.1v11.4ZM138.2 3.2h3.4c.3 0 .6-.3.6-.6s-.2-.6-.5-.6h-3.5c-.3 0-.5.3-.5.6s.2.6.5.6Z" fill="#000"/><path d="M138.2 14c.3 0 .6-.3.6-.6V7.7c0-.3-.3-.6-.6-.6s-.6.3-.6.6v5.7c.1.3.3.6.6.6ZM141.7 14c.3 0 .6-.3.6-.6V7.7c0-.3-.3-.6-.6-.6s-.6.4-.6.6v5.7c0 .3.2.6.6.6Z" fill="#000"/><path fill-rule="evenodd" clip-rule="evenodd" d="M186.2 7.3c.3-.2.8-.2 1 0l4.8 4.8 4.7-4.8a.7.7 0 1 1 1 1.1l-5.2 5.3c-.3.2-.7.2-1 0l-5.3-5.3a.7.7 0 0 1 0-1Z" fill="#000"/><path d="M113.9 19a1 1 0 0 1-.8-.4l-7-7.9a5.4 5.4 0 0 1 4.4-8.7c1.3 0 2.5.5 3.5 1.3a5.5 5.5 0 0 1 9 4.1c0 1.3-.5 2.5-1.3 3.4l-7 7.9c-.2.2-.4.3-.8.3Zm-6-9.5 6.1 6.9 6.2-7c.5-.5.7-1.2.7-2 0-1.8-1.5-3.3-3.3-3.3-1 0-2 .5-2.7 1.3-.3.3-.6.4-.9.4-.3 0-.6-.2-.8-.4a3.7 3.7 0 0 0-2.7-1.3 3.3 3.3 0 0 0-3.3 3.3c-.1.9.3 1.6.7 2.1-.1 0-.1 0 0 0ZM218 3l-6 5.8V15h12V8.8L218 3Zm5 11h-10V9.2l5-4.8 5 4.8V14Z" fill="#000"/><path d="M216 13h1v-2.5h2V13h1V9.5h-4V13Z" fill="#000"/><path fill-rule="evenodd" clip-rule="evenodd" d="M269 4h2v2h-2V4Zm2 12h-2V7h2v9Z" fill="#000"/><path d="M29 9v2h14V9H29ZM173 4.3 171.7 3 166 8.7 160.3 3 159 4.3l5.7 5.7-5.7 5.7 1.3 1.3 5.7-5.7 5.7 5.7 1.3-1.3-5.7-5.7 5.7-5.7ZM17 9h-6V3H9v6H3v2h6v6h2v-6h6V9ZM97.5 18l-3.7-3.7a8 8 0 0 0 1.7-4.8 8 8 0 1 0-3.1 6.3l3.7 3.7 1.4-1.5Zm-10-2.5a6 6 0 0 1-6-6 6 6 0 0 1 12 0 6 6 0 0 1-6 6Z" fill="#000"/><path d="m244 2 2.1 6.5h6.9l-5.6 4 2.2 6.5-5.6-4-5.6 4 2.2-6.5-5.6-4h6.9L244 2Z" fill="#83B3D3"/></svg>