<svg width="68" height="18" viewBox="0 0 68 18" fill="none" xmlns="http://www.w3.org/2000/svg">
  <path d="M7 0C4.8 0 3 1.8 3 4v2H0v4h3v8h4v-8h3V6H7V4h3V0H7ZM31.6 1.194c1.8-.5 3.2.3 3.8 1.2.7-.2 1.4-.5 2.1-.7 0 .9-.6 1.5-.9 1.8.7.1 1.4-.6 1.4-.6-.2 1-1.1 1.8-1.7 2-.2 6.8-3.3 11.2-10.6 11.1h-.5c-.4 0-4.4-.5-5.2-1.9 2.4.2 4.1-.4 5-1.2-1-.3-2.9-.4-3.2-2.9.4.1.6.2 1.3.1-1.3-.8-2.7-1.6-2.6-3.8.3.3 1.1.5 1.4.5-.8-.2-2.1-3.3-1-4.9 1.9 1.9 4 3.6 7.6 3.8.2-2.4 1.2-3.9 3.1-4.5Z" fill="#83B3D3"/>
  <path fill-rule="evenodd" clip-rule="evenodd" d="M65.814 2.418c.86.23 1.537.907 1.768 1.768C67.998 5.746 68 9 68 9s0 3.255-.418 4.814a2.505 2.505 0 0 1-1.768 1.768c-1.56.419-7.814.419-7.814.419s-6.255 0-7.814-.419a2.505 2.505 0 0 1-1.768-1.768C48 12.255 48 9 48 9s0-3.255.418-4.814a2.505 2.505 0 0 1 1.768-1.768C51.746 2 58 2 58 2s6.254 0 7.814.418Zm-4.62 6.583-5.196 3V6l5.196 3Z" fill="#83B3D3"/>
</svg>
