<svg width="68" height="18" fill="none" xmlns="http://www.w3.org/2000/svg"><path d="M7 0a4 4 0 0 0-4 4v2H0v4h3v8h4v-8h3V6H7V4h3V0H7ZM31.6 1.2c1.8-.5 3.2.3 3.8 1.2l2.1-.7c0 .9-.6 1.5-.9 1.8.7 0 1.4-.6 1.4-.6a3 3 0 0 1-1.7 2c-.2 6.8-3.3 11.2-10.6 11h-.5c-.4 0-4.4-.4-5.2-1.8 2.4.2 4.1-.4 5-1.2-1-.3-2.9-.4-3.2-3 .4.2.6.3 1.3.2-1.3-.8-2.7-1.6-2.6-3.8.3.3 1.1.5 1.4.5-.8-.2-2.1-3.3-1-5a11 11 0 0 0 7.6 3.9c.2-2.4 1.2-4 3.1-4.5Z" fill="#83B3D3"/><path fill-rule="evenodd" clip-rule="evenodd" d="M65.8 2.4c.9.2 1.6 1 1.8 1.8C68 5.7 68 9 68 9s0 3.3-.4 4.8c-.2.9-1 1.6-1.8 1.8-1.5.4-7.8.4-7.8.4s-6.3 0-7.8-.4c-.9-.2-1.6-1-1.8-1.8C48 12.3 48 9 48 9s0-3.3.4-4.8c.2-.9 1-1.6 1.8-1.8C51.7 2 58 2 58 2s6.3 0 7.8.4ZM61.2 9 56 12V6l5.2 3Z" fill="#83B3D3"/></svg>